<svg xmlns="http://www.w3.org/2000/svg" width="68" height="50" viewBox="0 0 34 25" shape-rendering="crispEdges" data-sprite="low-wall-u0" data-tiles="1x1" data-anchor="17,24" data-scale="2">
<!-- Generated by build-sprites.js from palette.json. Do not hand-edit; change the script and rebuild. -->
<path fill="#e6e3d9" d="M16 3h2v1h-2zM14 4h3v1h-3zM12 5h3v1h-3zM10 6h3v1h-3zM8 7h3v1h-3zM6 8h3v1h-3zM4 9h3v1h-3zM2 10h3v1h-3z"/>
<path fill="#4c4f5c" d="M17 4h2v1h-2zM15 5h4v1h-4zM13 6h6v1h-6zM11 7h8v1h-8zM9 8h8v1h-8zM7 9h8v1h-8zM5 10h8v1h-8zM3 11h8v1h-8zM3 12h6v1h-6zM3 13h4v1h-4zM3 14h2v1h-2z"/>
<path fill="#2e303a" d="M17 8h2v1h-2zM15 9h2v1h-2zM13 10h2v1h-2zM11 11h2v1h-2zM9 12h2v1h-2zM7 13h2v1h-2zM5 14h2v1h-2zM3 15h2v1h-2zM1 16h2v1h-2z"/>
<path fill="#f4f1ea" d="M1 11h2v1h-2z"/>
<path fill="#6b6e7b" d="M1 12h2v1h-2zM1 13h2v1h-2zM1 14h2v1h-2zM1 15h2v1h-2z"/>
</svg>
