<svg xmlns="http://www.w3.org/2000/svg" width="68" height="50" viewBox="0 0 34 25" shape-rendering="crispEdges" data-sprite="low-wall-v0" data-tiles="1x1" data-anchor="17,24" data-scale="2">
<!-- Generated by build-sprites.js from palette.json. Do not hand-edit; change the script and rebuild. -->
<path fill="#f4f1ea" d="M15 3h1v1h-1zM16 4h2v1h-2zM18 5h2v1h-2zM20 6h2v1h-2zM22 7h2v1h-2zM24 8h2v1h-2zM26 9h2v1h-2zM28 10h2v1h-2zM30 11h2v1h-2z"/>
<path fill="#e6e3d9" d="M16 3h2v1h-2zM18 4h2v1h-2zM20 5h2v1h-2zM22 6h2v1h-2zM24 7h2v1h-2zM26 8h2v1h-2zM28 9h2v1h-2zM30 10h2v1h-2z"/>
<path fill="#6b6e7b" d="M15 4h1v1h-1zM15 5h3v1h-3zM15 6h5v1h-5zM15 7h7v1h-7zM16 8h8v1h-8zM18 9h8v1h-8zM20 10h8v1h-8zM22 11h8v1h-8zM24 12h7v1h-7zM26 13h5v1h-5zM28 14h3v1h-3zM30 15h1v1h-1z"/>
<path fill="#2e303a" d="M15 8h1v1h-1zM16 9h2v1h-2zM18 10h2v1h-2zM20 11h2v1h-2zM22 12h2v1h-2zM24 13h2v1h-2zM26 14h2v1h-2zM28 15h2v1h-2zM30 16h4v1h-4z"/>
<path fill="#4c4f5c" d="M32 11h1v1h-1zM31 12h2v1h-2zM31 13h2v1h-2zM31 14h2v1h-2zM31 15h2v1h-2z"/>
</svg>
