<svg xmlns="http://www.w3.org/2000/svg" width="92" height="28" viewBox="0 0 46 14" shape-rendering="crispEdges" data-sprite="off-shift-chip" data-tiles="ui" data-anchor="0,0" data-scale="2">
<!-- Generated by build-sprites.js from palette.json. Do not hand-edit; change the script and rebuild. -->
<path fill="#3a404c" d="M1 0h44v1h-44zM0 1h1v1h-1zM45 1h1v1h-1zM0 2h1v1h-1zM45 2h1v1h-1zM0 3h1v1h-1zM45 3h1v1h-1zM0 4h1v1h-1zM45 4h1v1h-1zM0 5h1v1h-1zM45 5h1v1h-1zM0 6h1v1h-1zM45 6h1v1h-1zM0 7h1v1h-1zM45 7h1v1h-1zM0 8h1v1h-1zM45 8h1v1h-1zM0 9h1v1h-1zM45 9h1v1h-1zM0 10h1v1h-1zM45 10h1v1h-1zM0 11h1v1h-1zM45 11h1v1h-1zM0 12h1v1h-1zM45 12h1v1h-1zM1 13h44v1h-44z"/>
<path fill="#252a34" d="M1 1h44v1h-44zM1 2h44v1h-44zM1 3h4v1h-4zM9 3h29v1h-29zM39 3h6v1h-6zM1 4h4v1h-4zM9 4h28v1h-28zM39 4h6v1h-6zM1 5h3v1h-3zM10 5h27v1h-27zM39 5h6v1h-6zM1 6h4v1h-4zM9 6h28v1h-28zM39 6h6v1h-6zM1 7h4v1h-4zM9 7h28v1h-28zM41 7h1v1h-1zM43 7h2v1h-2zM1 8h37v1h-37zM42 8h3v1h-3zM1 9h2v1h-2zM12 9h33v1h-33zM1 10h2v1h-2zM12 10h33v1h-33zM1 11h2v1h-2zM12 11h33v1h-33zM1 12h2v1h-2zM12 12h33v1h-33z"/>
<path fill="#8d939e" d="M5 3h4v1h-4zM5 4h4v1h-4zM4 5h6v1h-6zM5 6h4v1h-4zM5 7h4v1h-4zM3 9h9v1h-9zM3 10h9v1h-9zM3 11h9v1h-9zM3 12h9v1h-9z"/>
<path fill="#c9cfd8" d="M38 3h1v1h-1zM37 4h2v1h-2zM37 5h2v1h-2zM37 6h2v1h-2zM37 7h4v1h-4zM42 7h1v1h-1zM38 8h4v1h-4z"/>
</svg>
